<?xml version="1.0" encoding="utf-8"?>
<!-- Generator: Adobe Illustrator 21.0.2, SVG Export Plug-In . SVG Version: 6.00 Build 0)  -->
<svg version="1.1" id="anchor" xmlns="http://www.w3.org/2000/svg" xmlns:xlink="http://www.w3.org/1999/xlink" x="0px" y="0px"
	 viewBox="0 0 400 400" style="enable-background:new 0 0 400 400;" xml:space="preserve">
<style type="text/css">
	.st0{fill:#2BC0EF;}
	.st1{fill:#FFFFFF;}
</style>
<path id="body" class="st0" d="M204.2,270.8c0.1-0.2,0.2-0.3,0.3-0.4c1.3-2.2,2.8-4.2,4.6-6c1.3-1.3,2.7-2.6,4.1-3.7
	c2.8-2.3,6-4,9.5-5.1c2.3-0.8,4.7-1.4,7-2.2c1.7-0.5,3.4-1.1,5.1-1.8c2.5-1,4.9-2,7.3-3c1.6-0.7,3.1-1.5,4.6-2.3
	c1.3-0.7,2.6-1.5,3.9-2.3c2.3-1.5,4.5-3.2,6.3-5.3c0.9-1.1,1.9-2.1,2.7-3.3c1.5-2,2.6-4.2,3.6-6.6c1.1-2.6,1.8-5.2,2.3-7.9
	c0.1-0.4,0.3-0.5,0.6-0.4c0.2,0,0.5,0.1,0.7,0.1c2,0.4,3.8,1,5.6,2c0.4,0.2,0.7,0.4,1.1,0.6c0-0.5,0.1-0.9,0.1-1.2
	c0.2-1.7,0.5-3.4,0.6-5.1c0.1-1.8,0-3.6-0.1-5.4c-0.1-1.2-0.2-2.5-0.4-3.7c-0.5-3-1.4-5.8-2.8-8.5c-0.7-1.2-1.4-2.4-2.2-3.6
	c-1.1-1.7-2.5-3.2-4-4.7c-0.2-0.2-0.4-0.3-0.6-0.5c-4.6,9.8-10.7,18.5-19.8,24.7c1.8,0.2,3.6,0.4,5.5,0.7c1.8,0.3,3.5,1,5.2,1.7
	c-0.3,0.6-0.5,1.1-0.8,1.6c-1.2,1.9-2.6,3.7-4.4,5.1c-1.5,1.2-3,2.5-4.6,3.6c-1.2,0.8-2.4,1.7-3.9,2.1c-0.9,0.3-1.8,0.6-2.7,0.8
	c-2.8,0.7-5.6,1.3-8.5,1.2c-1.1,0-2.2,0-3.3-0.2c-1.6-0.3-3.2-0.8-4.7-1.7c-1.5-0.9-2.7-2-3.8-3.3c-0.9-1.2-1.6-2.6-2.2-4
	c-0.7-1.8-1.3-3.7-1.3-5.6c0-1.2-0.1-2.5-0.2-3.7c-0.1-1.9-0.2-3.9-0.3-5.8c-0.1-1.2-0.1-2.3-0.2-3.5c-0.1-2.1-0.3-4.2-0.3-6.3
	c-0.1-8.6-0.1-17.1-0.1-25.7c0-2.7-0.1-5.5-0.1-8.2c0-2.3,0-4.5,0-6.8c0-0.1,0-0.2,0-0.3c0.1,0,0.2,0,0.3,0c5.7,0,11.5,0,17.2,0
	c0.2,0,0.4,0.1,0.6,0.2c0.7,0.5,1.3,1.1,2,1.6c1.6,1.1,3.3,1.8,5.2,2.1c1.9,0.4,3.9,0.6,5.8,0.3c2.1-0.3,4-0.8,5.9-1.9
	c1-0.6,2-1.1,2.8-2c1.4-1.7,2.6-3.5,2.8-5.8c0.2-1.6-0.2-3-0.9-4.3c-0.5-0.9-1.1-1.8-1.8-2.6c-0.7-0.8-1.4-1.5-2.3-2
	c-2.1-1.2-4.3-1.9-6.7-2.2c-1.6-0.2-3.3-0.2-4.9,0.1c-2.6,0.5-5,1.7-7.1,3.3c-0.6,0.5-1.3,0.7-2.1,0.7c-4.4,0-8.7,0-13.1,0
	c-0.2,0-0.3,0-0.5,0c-1.5,0-3,0-4.5,0c0-0.9-0.1-1.8-0.1-2.8c0-2.4,0-4.8,0-7.2c0-0.4,0.2-0.6,0.5-0.8c1.3-0.6,2.5-1.3,3.7-2
	c1.7-1.1,3.2-2.5,4.4-4.2c1.2-1.8,2-3.7,2.3-5.9c0.2-1.4,0.3-2.8,0-4.2c-0.9-3.5-2.4-6.7-5.3-9.1c-1.4-1.2-2.9-2.1-4.6-2.7
	c-1.5-0.5-3.1-1-4.7-1.3c-1.2-0.3-2.5-0.4-3.7-0.4c-0.9-0.1-1.8,0-2.6,0.1c-1.3,0.1-2.5,0.3-3.8,0.6c-2.2,0.5-4.2,1.2-6.1,2.3
	c-1.7,1-3.2,2.3-4.4,3.9c-0.7,1-1.3,2-1.8,3.1c-0.7,1.5-1.2,3-1.1,4.7c0,0.8,0.1,1.5,0.2,2.3c0.1,1.5,0.6,2.8,1.1,4.1
	c1.2,2.8,3.2,5,5.7,6.6c1.2,0.8,2.6,1.5,3.9,2.2c0.3,0.1,0.4,0.3,0.4,0.6c0,0.4-0.1,0.7-0.1,1.1c0,1.4-0.1,2.8-0.1,4.1
	c0,1.5-0.1,3-0.1,4.5c0,0,0,0.1-0.1,0.2c-0.1,0-0.2,0-0.3,0c-6.6,0-13.2,0-19.8,0c-0.2,0-0.4-0.1-0.5-0.2c-1.7-1.3-3.4-2.5-5.4-3.2
	c-1.2-0.4-2.5-0.8-3.8-1c-1-0.2-2-0.1-3,0c-0.8,0.1-1.7,0.2-2.5,0.4c-1.7,0.4-3.2,1.1-4.7,1.9c-0.7,0.4-1.5,0.8-2,1.4
	c-1,1.1-1.8,2.4-2.3,3.8c-0.5,1.3-0.6,2.6-0.4,3.9c0.2,1.6,0.9,3,1.8,4.2c0.7,0.9,1.5,1.9,2.4,2.5c2,1.4,4.2,2.3,6.7,2.7
	c1.9,0.3,3.7,0.2,5.5-0.2c2.8-0.7,5.2-2,7.4-3.7c0.4-0.3,0.7-0.4,1.2-0.4c1,0.1,2,0.1,3,0.1c1.5,0,3.1,0.1,4.6,0.1
	c2.5,0,4.9,0.1,7.4,0.1c1.2,0,2.4,0.1,3.7,0.1c0,0,0.1,0,0.1,0.1c0,0.1,0,0.2,0,0.3c-0.1,1.3-0.1,2.6-0.2,3.9c0,1.1-0.1,2.2-0.1,3.3
	c0,1.1-0.1,2.1-0.1,3.2c0,1-0.1,2.1-0.1,3.1c-0.1,2.1-0.1,4.2-0.2,6.4c0,1-0.1,2.1-0.1,3.1c0,1.1-0.1,2.1-0.1,3.2
	c0,1-0.1,2.1-0.1,3.1c0,2.7-0.1,5.4-0.1,8.1c0,2.2-0.1,4.5-0.2,6.7c0,1.3-0.1,2.5-0.2,3.8c-0.1,1.2-0.2,2.5-0.3,3.7
	c-0.2,1.7-0.3,3.5-0.6,5.2c-0.3,1.9-0.7,3.7-1.2,5.6c-0.4,1.5-1.1,2.8-1.9,4.1c-1,1.8-2.2,3.5-3.8,4.8c-2.2,1.9-4.8,2.9-7.6,3.1
	c-2.3,0.2-4.7,0-6.9-0.6c-1-0.2-2-0.4-2.8-0.9c-1.7-1-3.4-2-5.1-3.1c-2.2-1.5-4.2-3.3-6-5.3c-1.2-1.4-2.4-2.7-3.5-4.1
	c-0.4-0.5-0.7-1-1.1-1.5c3.2-1,6.5-0.9,9.9-0.4c-7.7-7.2-12.7-16-15.9-26c-1.1,1.2-2.1,2.3-3.1,3.4c-1,1.2-2,2.3-2.9,3.6
	c-1.3,1.9-2.7,3.9-3.8,5.9c-1.6,2.8-2.8,5.7-3.4,8.8c-0.3,1.7-0.5,3.4-0.7,5.1c-0.1,1.8,0,3.7,0.3,5.5c0.1,0.5,0.2,1,0.3,1.5
	c0.3-0.2,0.5-0.4,0.7-0.6c1.1-1.1,2.4-2,3.8-2.6c1-0.4,2.1-0.8,3.2-0.7c0.2,0,0.4,0.1,0.4,0.3c0.6,1.6,1,3.3,1.7,4.8
	c0.8,1.8,1.7,3.5,2.8,5.1c0.9,1.4,1.9,2.7,3,3.8c1.6,1.7,3.2,3.4,5,5c1.4,1.2,2.9,2.3,4.3,3.5c2.1,1.6,4.3,3,6.7,4.3
	c2.5,1.4,5.2,2.6,7.9,3.7c1.7,0.7,3.5,1.2,5.2,1.8c1.9,0.6,3.8,1,5.6,1.7c1.8,0.7,3.6,1.5,5.4,2.5c2.7,1.4,5.3,3.2,7.5,5.3
	c2,1.9,3.9,3.9,5.5,6.2C202.9,268.7,203.6,269.8,204.2,270.8z"/>
<path id="hole" class="st1" d="M204.1,113.2c1.7,0.1,3.4,0.4,4.9,1.4c1.5,1,2.5,2.4,2.9,4.1c0.3,1.5,0.1,3-0.7,4.4
	c-1.2,2-3.1,2.7-5.2,3.2c-1.7,0.4-3.4,0.2-5.1-0.3c-2.6-0.8-4.2-2.7-4.8-5.3c-0.2-0.9,0.1-2,0.4-2.9c0.7-2.2,2.3-3.5,4.5-4.1
	C202,113.5,203.1,113.4,204.1,113.2z"/>
</svg>
