<?xml version="1.0" encoding="utf-8"?>
<!-- Generator: Adobe Illustrator 21.0.2, SVG Export Plug-In . SVG Version: 6.00 Build 0)  -->
<svg version="1.1" id="bus" xmlns="http://www.w3.org/2000/svg" xmlns:xlink="http://www.w3.org/1999/xlink" x="0px" y="0px"
	 viewBox="0 0 600 600" style="enable-background:new 0 0 600 600;" xml:space="preserve">
<style type="text/css">
	.st0{fill:none;stroke:#000000;stroke-width:2;stroke-miterlimit:10;}
	.st1{fill:#FFFFFF;}
</style>
<path id="icon" class="st0" d="M423.5,412.5h-256c-6.6,0-12-5.4-12-12v-220c0-6.6,5.4-12,12-12h256c6.6,0,12,5.4,12,12v220
	C435.5,407.1,430.1,412.5,423.5,412.5z"/>
<path id="tire2" d="M173.2,336c2.3-5.9,3.9-12.2,6.9-17.6c12-21.4,37.4-30.9,60.4-23.2c22.7,7.6,37.7,31,34.7,54.2
	c-3.2,24.7-23,43.7-47.2,45.3c-24.5,1.7-46.7-14.2-53.2-38c-0.5-1.8-1.1-3.6-1.7-5.4C173.2,346.3,173.2,341.2,173.2,336z"/>
<path id="tire1" d="M418.8,351.4c-0.5,1.6-1.1,3.1-1.5,4.7c-6.5,24.8-30.6,41.6-55.3,38.5c-26.1-3.3-45.5-25-45.5-50.9
	c0-25.9,19.4-47.6,45.5-50.9c24.7-3.1,48.8,13.7,55.3,38.5c0.4,1.6,1,3.2,1.5,4.7C418.8,341.2,418.8,346.3,418.8,351.4z"/>
<path id="body" d="M366.8,262.3c0,6.1,0,12.4,0,19.2c-24.5,0.4-43.3-10.1-58-27.5c-8.4,8-16.4,15.5-25.3,23.9
	c6.3,6.2,12.8,12,18.6,18.3c2.2,2.4,3.9,6.1,4,9.3c0.4,19.2,0.2,38.4,0.2,58.1c-6.7,0-13.1,0-20.5,0c0-10.4-0.9-21.1,0.2-31.5
	c1.5-13.8-2.4-24.1-14.2-31.8c-6-3.9-11-9.4-16.3-14.3c-10.5-9.7-10.9-21.8-0.9-31.9c9-9.1,18-18.2,27.1-27.1
	c8.4-8.2,19.4-8.3,27.9-0.2c6,5.7,12.1,11.5,17.8,17.4c9.6,9.9,21,15.8,34.8,16.8c1.1,0.1,2.1,0.3,3.2,0.5
	C365.9,261.6,366.2,261.9,366.8,262.3z"/>
<path id="head" d="M352.3,205.5c0,11.1-9.1,20.4-20.3,20.5c-11.4,0.1-20.8-9.3-20.7-20.7c0.1-11.1,9.4-20.2,20.6-20.2
	C343.1,185.1,352.2,194.4,352.3,205.5z"/>
<path id="wheel2" class="st1" d="M260.2,343.8c0,19.8-16,35.7-35.8,35.7c-20.1,0-36-16.1-35.8-36.2c0.2-19.8,16.2-35.5,36.1-35.4
	C244.4,308,260.2,324,260.2,343.8z"/>
<path id="wheel1" class="st1" d="M367.5,379.5c-19.8,0-35.7-15.9-35.7-35.8c0-20.1,16.1-36,36.2-35.9c19.8,0.2,35.5,16.2,35.4,36.1
	C403.3,363.8,387.4,379.6,367.5,379.5z"/>
</svg>
