<?xml version="1.0" encoding="utf-8"?>
<!-- Generator: Adobe Illustrator 21.0.2, SVG Export Plug-In . SVG Version: 6.00 Build 0)  -->
<svg version="1.1" id="bin" xmlns="http://www.w3.org/2000/svg" xmlns:xlink="http://www.w3.org/1999/xlink" x="0px" y="0px"
	 viewBox="0 0 400 400" style="enable-background:new 0 0 400 400;" xml:space="preserve">
<style type="text/css">
	.st0{fill:#2BC0EF;}
	.st1{fill:#FFFFFF;}
</style>
<path id="body" class="st0" d="M275.4,221.3c-0.5,2-1,4-1.6,5.9c-1.3,3.9-3.4,7.3-6.1,10.3c-4.3,4.8-9.6,7.8-15.7,9.1
	c-6.5,1.5-12.8,0.8-18.9-1.9c-3.9-1.8-7.4-4.2-10.2-7.4c-3.6-4.1-6.1-8.8-7-14.2c-0.5-2.8-0.8-5.7-0.5-8.5c0.5-5.7,2.3-11,5.9-15.5
	c3.9-5,8.8-8.7,14.9-10.6c0.3-0.1,0.5-0.3,0.7-0.7c-2.2,0.6-4.5,1-6.6,1.9c-3.4,1.3-6.7,3.1-9.1,5.9c-2,2.4-3.8,5.1-5.5,7.7
	c-0.6,1-0.4,2.4-0.8,3.5c-1.5,4.9-5.8,7.9-10.8,7.7c-5.4-0.2-9.8-3.9-10.5-9.4c-0.3-2.5-1.9-4.5-3.3-6.4c-3.8-5.5-9.1-8.7-15.5-10.2
	c-0.9-0.2-1.8-0.4-2.6-0.5c-0.1,0-0.1,0.1,0.2-0.1c2.8,1.5,5.9,2.9,8.6,4.8c5.9,4,9.7,9.6,11.6,16.5c0.9,3.4,1.3,6.8,1,10.3
	c-0.4,5.5-2.3,10.6-5.5,15.1c-3.1,4.4-7.1,7.7-12.1,9.9c-5.7,2.6-11.6,3.3-17.8,2.2c-5-0.9-9.6-2.8-13.5-6
	c-5.5-4.5-9.4-10.2-10.6-17.4c-0.5-3.1-0.7-6.3-0.5-9.4c0.2-2.7,1.1-5.4,1.9-8c0.8-2.8,1.9-5.6,2.9-8.3c4.2-12.1,8.4-24.2,12.7-36.3
	c1.4-4,3.4-7.7,7.3-10c2.5-1.5,5.3-2.3,8.1-2.5c3.5-0.2,6.9-0.2,10.2,1.3c3.6,1.7,6.7,4.2,9.3,7.2c1.7,1.9,3.3,3.8,5.1,5.5
	c1.3,1.3,2.4,1.2,3.7-0.1c1.8-1.8,4-2.4,6.3-2.9c3.8-0.8,7.5-0.2,11,1.4c0.7,0.3,1.4,0.7,1.9,1.3c1.3,1.6,2.8,1.5,4.3-0.1
	c2.2-2.3,4.3-4.8,6.6-7.1c3.3-3.3,7.1-5.6,11.8-6.6c6.4-1.4,15.2,1.7,18.6,7.1c2.2,3.3,3.2,7.1,4.5,10.9c3.9,11.3,8,22.6,11.9,33.8
	c1.2,3.4,2.2,7,3.3,10.5c0.2,0.7,0.3,1.4,0.5,2C275.4,216,275.4,218.6,275.4,221.3z"/>
<path id="right-back" class="st0" d="M253.8,149c-12-5.5-23-4.5-33,4.4c-1-6.4,0.5-11.9,5.4-15.7c6.2-4.7,13.1-5.2,19.8-1.2
	C250.6,139.3,252.6,143.9,253.8,149z"/>
<path id="left-back" class="st0" d="M187.6,153.9c-9.7-9.9-20.6-10.1-32.6-4.9c1.1-4.2,2.5-8,5.9-10.6c5.9-4.7,12.4-5.2,18.9-1.6
	C186.4,140.4,188.5,146.4,187.6,153.9z"/>
<path id="left-eye" class="st1" d="M144.5,217.3c-0.1-10.3,8.6-19.4,19.6-19c10.1,0.4,18.2,8.3,18.2,18.8c0,10.8-8.1,19-19,19
	C153,236.3,144.7,228.1,144.5,217.3z"/>
<path id="right-eye" class="st1" d="M264.3,217.3c-0.2,10.8-8.5,18.9-18.9,18.9c-10.8,0-19-8.2-19-19c-0.1-10.2,8.1-19.2,19.7-18.9
	C255.8,198.6,264.3,206.7,264.3,217.3z"/>
</svg>
