<?xml version="1.0" encoding="utf-8"?>
<!-- Generator: Adobe Illustrator 21.0.2, SVG Export Plug-In . SVG Version: 6.00 Build 0)  -->
<svg version="1.1" id="bus" xmlns="http://www.w3.org/2000/svg" xmlns:xlink="http://www.w3.org/1999/xlink" x="0px" y="0px"
	 viewBox="0 0 600 600" style="enable-background:new 0 0 600 600;" xml:space="preserve">
<style type="text/css">
	.st0{fill:none;stroke:#000000;stroke-width:2;stroke-miterlimit:10;}
	.st1{fill:#FFFFFF;}
</style>
<path id="icon" class="st0" d="M423.5,412.5h-256c-6.6,0-12-5.4-12-12v-220c0-6.6,5.4-12,12-12h256c6.6,0,12,5.4,12,12v220
	C435.5,407.1,430.1,412.5,423.5,412.5z"/>
<path id="body" d="M222.2,377.4c-5-0.4-9.1-0.8-13.5-1.1c-0.4-1.7-0.9-3.1-0.9-4.4c-0.7-51.7-1-103.4,8.1-154.6
	c2.1-11.7,7.7-19.7,18.4-23.9c43.4-17.2,87-17.2,130.4,0c9.8,3.9,16.1,11,18,21.9c9.2,51.9,9.5,104.2,8.6,156.7
	c0,1.3-0.5,2.7-0.8,4.3c-4.4,0.4-8.6,0.7-13.3,1.2c-3.2,10.3,3.6,27.8-14.8,27.6c-17.9-0.2-11.5-16.8-14.1-27.5c-32.6,0-65,0-97.8,0
	c-2.8,10.8,4.1,28.2-15,27.5C218.4,404.3,224.8,388.3,222.2,377.4z"/>
<path id="dash" class="st1" d="M298.8,289.6c-21.2,0-42.4-0.3-63.6,0.1c-9.7,0.2-12.5-3.8-11.1-13c2.3-14.3,4.3-28.7,6-43
	c1.1-9.1,4.8-13.8,14.9-13.7c36.4,0.4,72.8,0.3,109.2,0c9.1-0.1,13.5,3.5,14.5,12.8c1.5,14.4,4.1,28.7,5.9,43
	c1.5,12.3,0.1,13.7-12.1,13.7C341.2,289.6,320,289.6,298.8,289.6z"/>
<path id="route" class="st1" d="M299,197.8c11.6,0,23.3-0.4,34.9,0.2c3,0.2,5.8,3.3,8.7,5.1c-2.7,2-5.5,5.6-8.2,5.7
	c-23.3,0.5-46.6,0.5-69.9,0c-2.8-0.1-5.5-3.7-8.2-5.7c2.9-1.8,5.8-4.9,8.8-5.1C276.3,197.4,287.7,197.8,299,197.8z"/>
<path id="hl1" class="st1" d="M236.5,347.2c-7.9-0.6-12.7-4.8-12.8-12.7c0-7.9,4.9-12.7,12.6-12.7c7.7,0,12.6,4.6,12.7,12.6
	C249,342.4,244.2,346.5,236.5,347.2z"/>
<path id="hl2" class="st1" d="M375.2,334.3c-0.5,7.6-4.3,12.5-12.4,12.7c-8.1,0.2-12.8-4.6-13-12.2c-0.2-7.7,4.6-12.8,12.3-13
	C369.9,321.6,374.5,326.2,375.2,334.3z"/>
</svg>
