<?xml version="1.0" encoding="utf-8"?>
<!-- Generator: Adobe Illustrator 21.0.2, SVG Export Plug-In . SVG Version: 6.00 Build 0)  -->
<svg version="1.1" id="drive" xmlns="http://www.w3.org/2000/svg" xmlns:xlink="http://www.w3.org/1999/xlink" x="0px" y="0px"
	 viewBox="0 0 600 600" style="enable-background:new 0 0 600 600;" xml:space="preserve">
<style type="text/css">
	.st0{fill:none;stroke:#000000;stroke-width:2;stroke-miterlimit:10;}
	.st1{fill:#FFFFFF;}
</style>
<path class="st0" d="M423.5,412.5h-256c-6.6,0-12-5.4-12-12v-220c0-6.6,5.4-12,12-12h256c6.6,0,12,5.4,12,12v220
	C435.5,407.1,430.1,412.5,423.5,412.5z"/>
<path id="body" d="M167,357c0-24.7,0-49.3,0-74c0.6-1.7,1.3-3.4,1.8-5.1c2.9-8.7,8.6-15.1,17.2-18.2c3.5-1.3,4.9-3.2,6.1-6.3
	c5.9-15.7,12-31.4,18.1-47c5.9-15.3,15.1-21.9,31.5-22c35.6-0.2,71.3-0.2,106.9,0c16.5,0.1,25.4,6.8,31.4,22.1
	c5.1,13.2,10.3,26.3,15.2,39.6c2.5,6.9,4.6,13.8,13.1,15.7c1.9,0.4,4,2.1,5.1,3.8c3.4,5,6.4,10.3,9.6,15.5c0,25.3,0,50.7,0,76
	c-6.6,0-13.2,0-20.1,0c0,4.7,0.1,8.4,0,12c-0.2,5.2,0,10.4-0.8,15.4c-1.9,12-14.7,18.6-25.9,13.9c-8.9-3.8-11.9-11.1-12.1-20
	c-0.1-6.8,0-13.6,0-20.6c-46.2,0-92,0-138.2,0c0,8.5,0.4,16.7-0.1,24.8c-0.5,8-5.1,13.6-12.8,16.3c-6.8,2.4-13.2,1-18.7-3.6
	c-5.6-4.7-6.7-11.2-6.7-18.1c0-6.4,0-12.9,0-20.2C180.2,357,173.6,357,167,357z"/>
<path id="windshield" class="st1" d="M378.1,257.8c-55.4,0-110.1,0-165.4,0c0.4-1.6,0.7-3,1.2-4.3c4.7-12.8,9.4-25.6,14.2-38.4
	c3.2-8.5,5.8-10.3,14.9-10.3c34.8,0,69.7,0,104.5,0c9,0,11.6,1.7,14.9,10.3C367.5,229.1,372.7,243.1,378.1,257.8z"/>
<path id="hl1" class="st1" d="M207.3,315.2c-9.5-0.1-17.6-8.6-17.3-18.3c0.3-9.7,8.1-17.7,17.4-17.8c9.3-0.1,17.6,8.4,17.6,18.1
	C224.9,307,216.7,315.3,207.3,315.2z"/>
<path id="hl2" class="st1" d="M400.4,297.1c0.1,9.7-8,18.1-17.4,18.1c-9.5,0-17.6-8.3-17.7-17.9c0-9.5,8.1-18,17.5-18.1
	C392.1,278.9,400.3,287.4,400.4,297.1z"/>
</svg>
