<?xml version="1.0" encoding="utf-8"?>
<!-- Generator: Adobe Illustrator 21.0.2, SVG Export Plug-In . SVG Version: 6.00 Build 0)  -->
<svg version="1.1" id="Capa_1" xmlns="http://www.w3.org/2000/svg" xmlns:xlink="http://www.w3.org/1999/xlink" x="0px" y="0px"
	 viewBox="0 0 58 58" style="enable-background:new 0 0 58 58;" xml:space="preserve">
<style type="text/css">
	.st0{fill:#4D90FE;}
	.st1{fill:#FFFFFF;}
</style>
<circle class="st0" cx="29" cy="29" r="29"/>
<g>
	<polygon class="st1" points="37,14 37,29.3 37,44 15,29 	"/>
	<path class="st1" d="M36.4,44.8l-22-15C14.2,29.6,14,29.3,14,29s0.2-0.6,0.4-0.8l22-15c0.3-0.2,0.7-0.2,1-0.1
		c0.3,0.2,0.5,0.5,0.5,0.9v30c0,0.4-0.2,0.7-0.5,0.9C37.3,45,37.2,45,37,45C36.8,45,36.6,44.9,36.4,44.8z M16.8,29L36,42.1V15.9
		L16.8,29z"/>
</g>
</svg>
