<?xml version="1.0" encoding="utf-8"?>
<!-- Generator: Adobe Illustrator 21.0.2, SVG Export Plug-In . SVG Version: 6.00 Build 0)  -->
<svg version="1.1" id="Capa_1" xmlns="http://www.w3.org/2000/svg" xmlns:xlink="http://www.w3.org/1999/xlink" x="0px" y="0px"
	 viewBox="0 0 58 58" style="enable-background:new 0 0 58 58;" xml:space="preserve">
<style type="text/css">
	.st0{fill:#4D90FE;}
	.st1{fill:#FFFFFF;}
</style>
<circle class="st0" cx="29" cy="29" r="29"/>
<g>
	<polygon class="st1" points="43,29 21,44 21,29.3 21,14 	"/>
	<path class="st1" d="M21,45c-0.2,0-0.3,0-0.5-0.1C20.2,44.7,20,44.4,20,44V14c0-0.4,0.2-0.7,0.5-0.9c0.3-0.2,0.7-0.1,1,0.1l22,15
		c0.3,0.2,0.4,0.5,0.4,0.8s-0.2,0.6-0.4,0.8l-22,15C21.4,44.9,21.2,45,21,45z M22,15.9v26.2L41.2,29L22,15.9z"/>
</g>
</svg>
