<?xml version="1.0" encoding="utf-8"?>
<!-- Generator: Adobe Illustrator 21.0.2, SVG Export Plug-In . SVG Version: 6.00 Build 0)  -->
<svg version="1.1" id="gull" xmlns="http://www.w3.org/2000/svg" xmlns:xlink="http://www.w3.org/1999/xlink" x="0px" y="0px"
	 viewBox="0 0 400 400" style="enable-background:new 0 0 400 400;" xml:space="preserve">
<style type="text/css">
	.st0{fill:#2BC0EF;}
</style>
<path class="st0" d="M145.7,148.6c-6.1-4.5-12.4-5.9-19.5-1.8c-3.5,2-7.4,3.1-11.2,4.6c0-6.7,2.9-11,9.6-12.3
	c7.9-1.5,12.5-6.1,15.9-13.1c5.1-10.6,20.6-13.3,30.2-5.3c5.7,4.8,9.5,10.9,9.7,18.6c0.1,5.3,0,10.7-0.5,15.9
	c-0.3,3.1,0.7,4.7,3.5,5.2c5.6,0.9,11.1,2.1,16.7,2.3c8.5,0.3,24,6.6,29.8,12.9c-1,0.4-1.9,0.7-2.8,1c3.4,3.5,6.8,7,10.3,10.5
	c0.5,0.5,1.4,1.1,1.4,1.4c-1.7,7.1,4.4,5.4,7.6,6.8c3.6,1.6,7.2,2.9,10.6,5.3c-1.6-0.2-3.2-0.4-5.4-0.6c0.6,1.1,0.7,1.9,1.2,2.2
	c6.6,3.8,13.1,7.7,19.8,11.2c5.5,2.9,11.4,5.1,17,7.9c1.5,0.7,6,0.7,2.3,4.5c1.5,0.9,3,2,4.6,2.8c0.9,0.4,2.1,0.4,3.2,1.4
	c-0.9,0.3-1.7,0.8-2.6,0.9c-7.3,0.8-14.6,2.1-21.9,2.2c-7.8,0.1-15.7-1.1-23.5-1.2c-5.7-0.1-11.5,0.5-17.2,1.3
	c-5.2,0.7-10.2,2.4-15.4,3.1c-5,0.8-10.1,0.9-15.8,1.4c-0.1,1.8-1,4.3-0.2,6c2.3,4.9,0.4,9.2-0.2,13.9c-0.9,6.6-0.9,13.3-1,20
	c-0.1,6.9-0.1,6.7-6.8,6c-12-1.2-24.1-1.8-36.1-2.8c-0.9-0.1-1.8-0.5-3.6-1c1.6-1.1,2.4-2.1,3.4-2.3c5.7-0.9,11.5-1.4,17.1-2.7
	c2.1-0.5,5.3-2.6,5.5-4.2c1.2-9.8,2.3-19.7,2.2-29.5c-0.1-6-4.5-10-10.3-12.2c-27.2-10.5-41.7-40-33.2-67.8
	C141.4,156.9,143.7,153,145.7,148.6z M187.8,278.2c7.2,0.6,8.7-0.2,9.6-7.1c0.7-6.2,0.3-12.5,0.5-18.8c0-1.6,0.4-3.3,1-4.8
	c2.1-5-1.4-10.7-6.9-10.9c-3.4-0.1-5.6,1-3.7,4.9c2.1,4.3,1.3,8.5,0.2,12.9c-1.1,4.4-1.2,9.1-1.3,13.7
	C187,271.3,187.5,274.6,187.8,278.2z"/>
</svg>
