<?xml version="1.0" encoding="utf-8"?>
<!-- Generator: Adobe Illustrator 21.0.2, SVG Export Plug-In . SVG Version: 6.00 Build 0)  -->
<svg version="1.1" id="lighthouse_1_" xmlns="http://www.w3.org/2000/svg" xmlns:xlink="http://www.w3.org/1999/xlink" x="0px"
	 y="0px" viewBox="0 0 600 600" style="enable-background:new 0 0 600 600;" xml:space="preserve">
<style type="text/css">
	.st0{fill:#9B1F1F;}
	.st1{fill:#FFFFFF;}
	.st2{fill:none;stroke:#000000;stroke-width:0.5;stroke-linecap:round;stroke-linejoin:round;}
	.st3{display:none;fill:#FFFFFF;}
	.st4{fill:#EFEF2B;}
	.st5{stroke:#000000;stroke-width:0.5;stroke-linecap:round;stroke-linejoin:round;}
</style>
<g id="lighthouse">
</g>
<path id="body" class="st0" d="M335,190.9c4.3,1.1,8.3,2.1,12.3,3.2c2.4,0.6,3.5,2,3.3,4.7c-0.3,3.7-0.8,7.6-0.3,11.2
	c0.5,3.4,0.4,6.6-0.5,9.9c-0.4,1.3-0.5,2.8-1.2,4c-3,4.8-3.2,9.9-2.7,15.4c0.8,9,1.1,18,1.7,27c0.7,10.8,1.5,21.5,2.2,32.3
	c0.5,8.2,0.9,16.3,1.4,24.5c0.7,11,1.4,21.9,2.1,32.9c0.4,7,0.8,14.1,1.2,21.1c0.7,10.7,1.5,21.4,2.1,32c0.7,10.3,1.2,20.6,1.8,30.9
	c0.3,4.3,0.4,8.6,0.8,12.9c0.1,0.7,1.1,1.8,1.8,1.9c7.9,1.5,15.9,2.9,23.9,4.1c12.1,1.7,24.2,3.3,36.3,4.7c5,0.6,10.2,0.1,15.2,0.5
	c8.8,0.7,17.5,1.8,26.2,2.8c0,0.2,0,0.5,0,0.7c-4.1,0.4-8.2,0.8-12.3,1.1c-10.3,0.8-20.6,1.6-30.9,2.4c-4.4,0.3-8.8,0.6-13.2,0.8
	c-10.6,0.4-21.2,0.7-31.8,1.1c-9.3,0.3-18.6,0.7-27.9,1.1c-11.5,0.4-22.9,0.7-34.4,1.1c-11.7,0.4-23.3,0.8-35,1.1
	c-9.2,0.3-18.4,0.8-27.7,0.6c-14.4-0.3-28.7-1.1-43-1.7c-10.3-0.4-20.7-0.9-31-1.4c-10.6-0.5-21.2-1.2-31.8-1.8
	c-2.1-0.1-4.3,0-6.4-0.4c37.4-6.1,74.9-12.2,112.5-18.4c0.3-6.1,0.5-12.5,0.8-18.9c0.6-16.5,1.2-33.1,1.9-49.6
	c0.3-8.5,0.7-17.1,1.1-25.6c0.7-16.1,1.5-32.1,2.1-48.2c0.4-9.9,0.7-19.7,1.1-29.6c0.6-13.9,1.2-27.8,1.8-41.7
	c0.2-5.1,0.3-10-2.8-14.6c-2.7-4.1-1.6-8.5,0-12.8c0.2-0.7,0.3-1.4,0.3-2.2c0.1-4.5,0.3-9,0.3-13.5c0-1.9,1-2.6,2.4-3
	c3.2-0.9,6.3-1.8,9.6-2.4c1.8-0.3,2.4-1,2.3-2.7c-0.1-2.9,0.1-5.9-0.1-8.8c-0.1-0.8-1-1.8-1.7-2.1c-2.9-1.1-5.9-1.8-8.8-2.9
	c-2.3-0.9-3.2-2.3-2.9-5.2c0.5-5,0.4-10.2,0.2-15.2c-0.1-2.8,1.1-4.4,3.4-5.5c2.3-1.1,4.6-2.2,7-3c1.5-0.5,2-1.2,2-2.8
	c-0.1-5.7,0.1-11.3-0.1-17c-0.1-2.8,1.3-4.1,3.5-4.6c4.2-1,8.4-2.2,12.7-2.4c11.3-0.4,22.6-0.6,33.9-0.4c4.3,0.1,8.5,1.2,12.8,2
	c2.1,0.4,2.8,1.7,2.8,3.9c-0.1,5.8,0,11.7-0.1,17.5c0,1.8,0.4,2.8,2.2,3.4c1.2,0.3,2.3,1,3.4,1.5c5,2.4,8.4,5.7,7.3,12
	c-0.6,3.4-0.2,7-0.1,10.4c0.1,2.8-1.1,4.7-3.7,5.6c-2.3,0.8-4.7,1.4-7,2.3c-0.8,0.3-1.9,1.2-1.9,1.8C334.9,183,335,187,335,190.9z"
	/>
<path id="top" class="st0" d="M328.3,117.8c-17.9-1.2-35.6-1.7-53.3,1.2c4.9-3,9.7-6,14.6-9c1.2-0.7,2.5-1.4,3.6-2.2
	c0.6-0.5,1.1-1.4,1.3-2.2c0.2-1.1-0.2-2.6,1.7-2.6c0-2.1,0.3-4.2-0.1-6.1c-0.7-3.2,0.3-6.1,3.1-7.3c2.8-1.3,6.1-0.3,7.5,2.5
	c0.6,1.2,0.8,2.9,0.6,4.3c-0.2,2.6-0.7,4.7,0.8,7.6c1.4,2.6,3.1,3.6,5.1,4.9C318.1,111.9,323.2,114.8,328.3,117.8z"/>
<path id="bird3" d="M157.4,251.4c3.6-3.1,7.9-4,12.4-4.4c3.3-0.3,6.5-0.6,9.8-1c6.4-0.8,11.2-4.5,15.9-8.5c4.4-3.7,8.9-7.2,14.9-8.1
	c0.5-0.1,0.9-0.2,1.4-0.2c0.5,0,0.9,0,1.7,0.5c-2.4,1.5-4.8,3-7.1,4.6c-5.8,4.1-12.1,7.7-17.1,12.7c-3.3,3.3-6.5,3.7-10.4,3.5
	C171.7,250,164.6,249.5,157.4,251.4z"/>
<path id="bird2" d="M436.5,323.2c-4.5,2.1-9,4.1-13.3,6.5c-4.7,2.6-9.5,5.3-13.8,8.7c-2.9,2.3-5.7,1.8-8.7,1.4
	c-5.8-0.7-11.5-1.4-17.3-2c-1.6-0.2-3.3,0.3-5.5,0.5c3.1-2.3,6.3-2.8,9.5-2.9c3.6-0.1,7.2-0.2,10.7,0c7.5,0.6,13.7-2.5,19.7-6.4
	c2.5-1.6,5.1-3.4,7.9-4.4c3.4-1.2,7-1.8,10.5-2.6C436.2,322.3,436.4,322.8,436.5,323.2z"/>
<path id="bird1" d="M201,301.5c2.2-3.4,5.2-5.2,8.5-6.2c7.1-2.1,12.4-6.3,16.3-12.7c2.2-3.7,5-7,9.9-7.8c-2.8,3.2-5.6,6.3-8.3,9.6
	c-1.9,2.4-3.7,5-5.2,7.7c-1,1.8-2.1,2.9-4.1,3.4c-4.1,1.1-8.2,2.2-12.2,3.5C204.3,299.6,202.9,300.5,201,301.5z"/>
<path class="st1" d="M353.7,453.8c-0.7,0-0.8,0.1-1,0c-5.8-1.1-5.7-1.1-5.8-7.1c0-4.7,0.7-13-4.2-13.8c-1.1-0.2-8.3-0.2-9.8-0.4
	c0,3,0,15.1,0,18.3c-24-3.1-54.9-0.4-78.7,3.3c0.3-6.6,6.5-169,6.8-175.2c0.1-3.3,0.3-6.6,0.4-9.9c0.4-10.6,0.3-21.3,1.3-31.8
	c0.5-5.6-1-10.1-3.5-14.6c-1.7-3.1-1.4-3.8,1.9-4.9c10.2-3.5,20.9-4.7,31.6-5.1c17.2-0.5,34.1,1.5,50.9,5.1c3.2,0.7,3.2,0.8,2,3.9
	c-1.3,3.3-3.4,6.6-3.4,9.9c0.2,10.9,1.3,21.7,1.9,32.6c0.5,8.7,8.6,173.4,9.1,182.1C353.3,448.8,353.5,451.2,353.7,453.8z"/>
<path class="st2" d="M283.3,228.5c-2.3,0.3-4.4,0.5-6.5,0.9c-0.5,0.1-1.2,0.8-1.2,1.2c-0.1,4.8-0.1,9.5-0.1,14.5
	c2.8-0.2,5.2-0.3,7.8-0.5C283.3,239.2,283.3,234,283.3,228.5z"/>
<path class="st3" d="M289.4,463.1c22.3-0.4,44.3-0.9,66.6-1.3c-1.4-22.6-2.8-44.7-4.1-67.2c-10.9-0.6-21.4-1.6-32-1.7
	c-11.1-0.2-22.2,0.1-33.3,0.8c-9.6,0.7-19.2,2.2-28.8,3.5c-0.7,0.1-1.7,1.2-1.8,1.9c-0.3,2.5-0.4,5-0.5,7.6
	c-0.4,10.8-0.7,21.6-1.1,32.4c-0.1,3.8-0.5,7.7-0.6,11.5c-0.1,4.3,0,8.6,0,12.8c5.4,0,10.8,0,16.5,0L289.4,463.1z"/>
<path id="light" class="st4" d="M302.2,143.8c1.9,0,3.8,0.2,5.6,0c2.4-0.3,3.3,0.8,3.9,3c1.1,4.2-0.5,8.8-4.1,11.2
	c-3.5,2.3-8.6,2-11.8-0.8c-3.5-3-4.6-7.7-2.7-11.7c0.3-0.7,1.5-1.4,2.3-1.5C297.7,143.7,299.9,143.8,302.2,143.8z"/>
<path class="st1" d="M317.1,130.7c0,3.1,0,6.3,0,10.1c-3.8-0.5-7.4-1.2-11-1.5c-2.6-0.2-5.2-0.4-7.8,0c-3.5,0.5-6.9,1.5-10.7,2.4
	c0-3.9,0-7.4,0-11c4.8,0.2,9.7,0.6,14.7,0.6C307.2,131.4,312.1,130.9,317.1,130.7z"/>
<path class="st1" d="M336,147.7c9.2,4.2,9.2,4.2,9.2,13.9c0,2.1,0,4.2,0,6.5c-3.3-0.9-6.1-1.7-8.9-2.6c-0.5-0.2-1.2-0.9-1.3-1.4
	c-0.1-4.6-0.1-9.2,0-13.8C335,149.4,335.6,148.6,336,147.7z"/>
<path class="st1" d="M269.1,147.8c0,6.3,0,11.7,0,17.2c-3,0.8-6.1,1.7-9.6,2.7c0-4.8,0-9.3,0-13.9c0-0.4,0.5-1,0.9-1.2
	C263.1,151.1,265.8,149.6,269.1,147.8z"/>
<path class="st1" d="M331.6,143.1c-3.9-0.8-7.4-1.6-11.1-2.3c0-3.7,0-7.2,0-10.8c3.7-1.2,7.3-2.4,11.1-3.6
	C331.6,132,331.6,137.4,331.6,143.1z"/>
<path class="st1" d="M273.2,127.4c3.3,0.8,6.5,1.5,9.8,2.4c0.4,0.1,0.8,1,0.8,1.5c0.1,3.5,0,6.9,0,10.5c-3.6,0.7-6.9,1.3-10.6,2
	C273.2,138.4,273.2,132.9,273.2,127.4z"/>
<path class="st1" d="M320.5,163.1c0-3.3,0-6.2,0-9.2c3.7-0.7,7.2-1.4,11-2.1c0,4.2,0,8.3,0,12.7C327.9,164,324.3,163.6,320.5,163.1z
	"/>
<path class="st1" d="M273.1,151.8c3.6,0.7,7,1.4,10.6,2.1c0,3,0,5.9,0,9.2c-3.5,0.4-6.9,0.8-10.6,1.3
	C273.1,160,273.1,156,273.1,151.8z"/>
<path class="st1" d="M347.1,211c-0.7,0-1,0-1.2,0c-4.7-0.8-4.8-1.2-4.2-6c0.3-3.1,0.1-6.3,0.1-9.4c4.1-0.7,6.1,0.7,6,4.1
	C347.6,203.4,347.3,207.2,347.1,211z"/>
<path class="st1" d="M266.4,208.7c0-4.5-0.2-8.9,0.1-13.3c0.1-0.9,1.9-1.7,2.9-2.6c0.3,0.2,0.7,0.3,1,0.5c0,1.9,0,3.8,0,5.7
	c0,2-0.2,4,0,5.9C270.8,207.7,269.6,208.9,266.4,208.7z"/>
<path class="st1" d="M263.5,194.9c0,4.6,0.2,9.2-0.2,13.8c-0.1,1-2.3,1.8-4.2,3.1c0-5.6-0.2-10.2,0.2-14.8c0.1-1.1,2.1-1.9,3.3-2.9
	C262.9,194.4,263.2,194.7,263.5,194.9z"/>
<path class="st1" d="M309.5,160.3c-1.1-0.1-2-0.1-2.9-0.2c4-1.1,5.1-6.8,10.4-6c0,2.7,0,5.5,0,8.3
	C311.8,163.4,310.4,163.1,309.5,160.3z"/>
<path class="st1" d="M287.7,153.1c2.2,1.4,3.8,2.2,5.2,3.3c1.6,1.1,3.1,2.4,4.8,3.7c-0.9,0.1-1.7,0.2-2.5,0.3
	c-0.8,2.1-5.6,3.5-7.2,2.1c-0.3-0.3-0.5-0.8-0.5-1.2c-0.1-1.5-0.1-3,0-4.5C287.5,155.9,287.6,155.1,287.7,153.1z"/>
<path class="st1" d="M338.3,209.3c-1.3-0.3-2.2-0.5-3.2-0.7c0-4.8,0-9.4,0-14.2c1.3,0,2.4,0,3.9,0
	C338.8,199.3,338.5,204.2,338.3,209.3z"/>
<path class="st1" d="M320.6,151.2c0-2.6,0-4.4,0-6.4c4,0.7,7.9,0.7,11.2,2.8c0,0.4,0,0.7,0.1,1.1
	C328.3,149.5,324.6,150.3,320.6,151.2z"/>
<path class="st1" d="M283.7,144.6c0,2.4,0,4.1,0,6.5c-3.5-0.8-6.8-1.5-10.1-2.3c-0.1,0,0-1.9,0.2-1.9
	C277,146,280.2,145.3,283.7,144.6z"/>
<path class="st1" d="M313,144.3c1.4,0,2.6,0,4.1,0c0,2.4,0,4.6,0,7c-1,0.1-1.9,0.1-2.8,0.2C313.8,149.1,313.4,146.8,313,144.3z"/>
<path class="st1" d="M287.6,144.3c1.5,0,2.7,0,3.8,0c-0.4,2.3-0.8,4.5-1.3,7c-0.6,0-1.5,0.1-2.5,0.1
	C287.6,149,287.6,146.8,287.6,144.3z"/>
<path class="st3" d="M259.5,306l-1.5,87c0,0,39.8-8.5,93.3-3.1l-4.6-85.5C346.6,304.4,302.3,289.6,259.5,306z"/>
<path class="st5" d="M283.3,228.5c0,5.5,0,10.7,0,16.2c-2.5,0.2-4.9,0.3-7.8,0.5c0-5,0-9.8,0.1-14.5c0-0.4,0.7-1.1,1.2-1.2
	C278.9,229,281,228.8,283.3,228.5z"/>
<path class="st5" d="M335.9,280.5c0-0.6,0,4.6,0,16.2c-2.8,0.2-5.4,0.3-8.5,0.5c0-5,0-9.8,0.1-14.5c0-0.4,0.8-1.1,1.4-1.2
	C331.1,281,333.5,280.8,335.9,280.5z"/>
</svg>
