<?xml version="1.0" encoding="utf-8"?>
<!-- Generator: Adobe Illustrator 21.0.2, SVG Export Plug-In . SVG Version: 6.00 Build 0)  -->
<svg version="1.1" id="seagull" xmlns="http://www.w3.org/2000/svg" xmlns:xlink="http://www.w3.org/1999/xlink" x="0px" y="0px"
	 viewBox="0 0 400 400" style="enable-background:new 0 0 400 400;" xml:space="preserve">
<style type="text/css">
	.st0{fill:#2BC0EF;}
</style>
<path id="body" class="st0" d="M317.3,194.4c-0.1-0.5-0.2-1-0.3-1.6c-17,1.2-32-4.7-46.9-11.8c-11.5-5.4-22.8-3.2-32.4,4.9
	c-11.7,9.8-22.8,20.3-34.3,30.4c-1.3,1.1-3.5,1.9-5.2,1.8c-5-0.4-10-1.3-14.9-2.3c-1.2-0.2-2.4-1.6-3.1-2.7
	c-2.1-3.8-3.4-8.1-5.8-11.7c-5.7-8.6-12.5-16.3-21.7-21.2c-12.6-6.7-25.3-4.7-37.5,1.1c-10.7,5.1-20.9,11.3-33,14
	c1.6,1.5,3.2,3,5,3.6c6.7,2.2,13.5,2.8,20.4,1.6c10.8-2,20.9-0.5,30,5.8c6.6,4.6,11.9,10.3,15.1,18c-4.4,2.5-9.9,2.5-12.7,7.8
	c3.2,0.2,5.8,0.3,8.4,0.7c11.1,1.5,21.3,6,30.8,11.4c11,6.3,22.6,6.2,34.4,4.5c5.3-0.8,10.2-0.7,15.3,0.8c1.2,0.3,2.5,0.3,3.9,0.5
	c-4-4.9-7.6-9.3-10.9-13.5c7.7-6.5,15.7-11.6,21.3-18.6c6.3-7.8,13.9-9.6,22.7-9.5c10.4,0.1,20.4-1.8,30-5.3
	C303.2,200.4,310.2,197.3,317.3,194.4z"/>
</svg>
