<?xml version="1.0" encoding="utf-8"?>
<!-- Generator: Adobe Illustrator 21.0.2, SVG Export Plug-In . SVG Version: 6.00 Build 0)  -->
<svg version="1.1" id="walk" xmlns="http://www.w3.org/2000/svg" xmlns:xlink="http://www.w3.org/1999/xlink" x="0px" y="0px"
	 viewBox="0 0 600 600" style="enable-background:new 0 0 600 600;" xml:space="preserve">
<style type="text/css">
	.st0{fill:none;stroke:#000000;stroke-width:2;stroke-miterlimit:10;}
</style>
<path class="st0" d="M423.5,412.5h-256c-6.6,0-12-5.4-12-12v-220c0-6.6,5.4-12,12-12h256c6.6,0,12,5.4,12,12v220
	C435.5,407.1,430.1,412.5,423.5,412.5z"/>
<path id="body" d="M315.6,270.9c-2,9.4-3.8,17.3-5.2,25.3c-0.2,1.2,1.2,2.9,2.2,4.1c7.3,8,14.6,15.9,22.2,23.7c3.5,3.5,5,7.5,5,12.3
	c-0.1,17.2,0,34.5,0,51.7c0,7.2-4.5,12.1-10.7,12c-6.2-0.1-10.4-4.6-10.4-11.7c-0.1-13.6,0.1-27.1-0.2-40.7
	c-0.1-2.8-1.4-6.1-3.2-8.1c-7.3-7.9-15.1-15.4-23.6-24.1c-1.6,9.3-3.3,17.4-4.3,25.6c-0.7,5.7-2.9,10.4-6.7,14.7
	c-10.7,12.3-21.2,24.8-31.7,37.2c-5.1,6-11.2,7.1-16.2,2.8c-5-4.2-4.9-10.3,0.3-16.4c7.6-9.1,15.1-18.4,22.9-27.4
	c3.6-4.1,5.7-8.5,6.7-14c4.7-25.7,9.8-51.4,14.7-77.1c0.1-0.5,0-1.1,0-3.8c-4,3.5-7.7,5.6-9.6,8.7c-4.7,7.8-8.7,16.1-12.8,24.2
	c-2.8,5.5-7.7,7.6-12.6,5.2c-5.1-2.5-6.4-7.9-3.4-13.6c0.7-1.3,1.4-2.6,2.1-3.8c5.3-9.6,8.8-21.3,16.5-28.2
	c10-9,23.2-14.4,35.3-20.9c9.5-5,21.8-0.2,27.4,10.4c5.6,10.7,10.8,21.6,16,32.5c1.4,2.9,3.1,4.5,6.5,4.9c7.1,0.9,14.1,2.3,21.1,3.7
	c6.3,1.3,9.3,5.4,8.3,10.8c-1,5.2-5.8,8-11.9,6.7c-9.3-1.9-18.6-4-28-5.6c-4.5-0.8-7.2-3.1-9.1-7
	C320.8,280.6,318.5,276.5,315.6,270.9z"/>
<path id="head" d="M308.7,221.3c-9.9,0-17.9-7.8-17.9-17.7c0-9.7,8.2-17.8,18-17.7c9.6,0.1,17.5,7.9,17.6,17.5
	C326.5,213.2,318.6,221.2,308.7,221.3z"/>
</svg>
