<?xml version="1.0" encoding="utf-8"?>
<!-- Generator: Adobe Illustrator 21.0.2, SVG Export Plug-In . SVG Version: 6.00 Build 0)  -->
<svg version="1.1" id="wheel" xmlns="http://www.w3.org/2000/svg" xmlns:xlink="http://www.w3.org/1999/xlink" x="0px" y="0px"
	 viewBox="0 0 400 400" style="enable-background:new 0 0 400 400;" xml:space="preserve">
<style type="text/css">
	.st0{fill:#2BC0EF;}
	.st1{fill:#FFFFFF;}
</style>
<path id="body" class="st0" d="M278.4,184.6c-0.8-6.7-2.6-13.2-5.9-21c-2.6-6.1-10.9-19.3-12.2-19.3c-0.4,0-0.7-0.4-0.7-0.8
	c0-0.5,0.4-0.8,0.8-0.8c0.5,0,2.9-2.2,5.4-4.9c4.5-4.9,4.5-4.9,8.7-4.9c4.5,0,6.4-0.7,9.5-3.7c10.5-9.6,0.5-26-13.2-21.5
	c-4.6,1.5-7.2,4.4-8.5,9.3c-0.8,3.3-2,5.1-6.9,10.3l-5.8,6.3l-4.7-3.1c-9.5-6.2-22.7-11.4-31.6-12.5c-4.3-0.5-4.9-0.8-5.4-2.5
	c-0.9-3.2-0.8-14.1,0.2-14.8c2-1.2,5.2-7.5,5.2-10.2c0-10.4-9.4-16.6-18.5-12.4c-4.2,2-4.8,2.6-6.7,7.1c-1.7,3.8-1.2,8.7,1.4,12.4
	c1.5,2.2,1.7,3.6,1.9,11.3l0.2,8.7l-4.4,0.9c-9.8,1.9-22.5,7.2-30,12.6c-2.1,1.6-4.4,3.2-5,3.5c-0.7,0.5-2.7-1.1-6.6-4.9
	c-5-5-5.6-5.9-5.6-8.4c0-12.7-17.5-17.9-24.1-7.1c-2.6,4.3-2.8,7.7-0.5,12.3c2.2,4.4,5.1,6.6,9.9,7.5c2.6,0.4,4.1,1.4,8.9,6.4
	c3.2,3.2,5.8,6,5.8,6.3c0,0.2-1.2,2.3-2.7,4.7c-5.3,8.2-9.3,18.3-12.6,31.7l-0.8,3.2h-6.7c-5.8,0-7-0.2-9.5-1.9
	c-11.7-7.9-25.4,3.8-19.2,16.5c1.8,3.8,4.9,6.1,9.2,6.8c4.1,0.8,7-0.2,10.7-3.5c3.3-2.9,3.4-3,9.4-2.9l6.1,0.1l0.9,4.7
	c2.4,12.8,6.4,22.4,13.6,32.1l3.6,5l-5.4,5.8c-5,5.3-5.6,5.8-8.4,5.7c-7,0-12.9,6.6-12.3,13.7c0.9,10.4,11.7,15.7,20.2,10.1
	c3.6-2.3,5.2-5.3,5.8-10.2c0.4-3.2,0.9-4.1,5.9-9l5.5-5.4l4.7,3.5c7,5.1,19.1,10.5,25.3,11.3c3.7,0.5,8.9,1.7,9.5,2.3
	c0.2,0.2,0.6,4.3,0.7,9c0.2,7.3,0.1,8.9-1.2,11.1c-2.1,3.6-2.6,6.8-1.5,10.5c3.3,11,18.2,12.6,23.8,2.7c3.1-5.6,2-11.7-3.2-16.7
	c-2.7-2.7-2.8-2.9-3.2-9.6l-0.3-6.9l7.8-1.4c10.7-1.8,17.9-4.8,31.9-13.2l2.2-1.3l5.8,6.2c3.3,3.5,6.2,6.2,6.7,6.2s1.1,1.1,1.4,2.3
	c1.1,4.7,7.5,9.7,12.6,9.8c2.6,0,9.1-3.4,10.8-5.7c0.8-1.1,1.6-3.5,1.8-5.3c1.1-9.6-4.3-15.4-14.1-15.4h-4.3l-4.6-5l-4.6-4.9
	l2.3-3.2c3.9-5,7-10.3,9.2-15.1c2-4.7,5.2-16.5,6.1-22.5l0.5-3.5h8.9h8.9l2.2,2.3c2.8,2.9,6.8,4.1,11.3,3.5
	c12.2-1.8,14.2-19.5,2.8-24.2c-4.2-1.7-8.4-1.4-12.4,1.2c-3.3,2-1.3,2-13.2,2.3C283,184.3,280,184.5,278.4,184.6z"/>
<path id="inner-body" class="st1" d="M198.3,130.1L198.3,130.1c8.9-0.5,15.7,0.3,22.9,2.5c5.9,1.9,17.3,8,20.4,10.9
	c0.7,0.7,3.2,3.1,5.5,5.3c8.4,8.1,14,18.2,17.4,31.5c1.8,7,1.7,19.2-0.4,26.8c-4.2,16-8.3,23.4-17.6,31.6c-2.7,2.5-5.1,5-5.1,5.4
	c-0.1,0.5-0.7,1-1.4,1c-0.8,0-2.3,0.7-3.6,1.6c-2.9,1.9-12.3,6.8-13.9,7.1c-5.9,1.3-14.2,3.7-14.5,4.2c-0.2,0.3-0.9,0.3-1.5-0.1
	c-0.6-0.5-3.9-0.8-7.2-0.8c-7.8,0-20.1-3.2-27.3-7.1c-2.9-1.6-6.2-3.4-7.4-4.1c-3.6-1.9-13.5-12.2-16.6-17.2
	c-3.3-5.6-5.8-11.1-7.6-16.8c-0.8-2.3-1.7-5-2.2-5.9c-0.6-1.1-0.9-6-0.9-13.5c0.1-10.9,0.2-12.2,2.2-17.8c4.3-12.1,8-18,17.3-27.1
	c6.1-5.9,8.1-7.5,15.1-10.8C181.4,132.1,186.8,130.8,198.3,130.1z"/>
<path id="_x39_" class="st0" d="M205.4,133.2c0.2,1,0.5,8.7,0.5,17.2v15.4l-6.1,0.1l-6.1,0.1v-16.8c0-12.7,0.2-16.8,1-17.1
	c0.5-0.2,3-0.4,5.5-0.5C204.5,131.5,205,131.6,205.4,133.2z"/>
<path id="_x38_" class="st0" d="M247.1,150.3l2.2,2.3l-4.8,5c-2.7,2.7-5.5,5.5-6.1,6.2c-0.6,0.7-3.9,4.2-7.4,7.8l-6.3,6.5l-4.2-4.1
	c-3.5-3.5-4-4.4-3.2-5.2c0.5-0.6,6.1-6.2,12.3-12.4l11.3-11.3l2,1.4C244,147.3,245.8,149,247.1,150.3z"/>
<path id="_x37_" class="st0" d="M172.1,159.3l11.7,11.5l-2.9,2.8c-1.5,1.5-3.3,3.5-4.1,4.6l-1.2,1.9l-10.7-10.9
	c-14.5-14.8-13.9-13.5-9.3-18.1c2-2,3.9-3.6,4.2-3.5C160.2,147.6,165.7,152.9,172.1,159.3z"/>
<path id="_x36_" class="st0" d="M210.6,171c4.9,2.4,6.5,3.5,8.3,5.3c2.3,2.6,6.4,11.1,7,14.3c0.5,3.8-1.4,12.6-3.8,16.3
	c-2.9,4.5-9.2,9-15.7,10.8c-5.3,1.5-10.8,0.7-17.7-2.6c-8.3-4.1-13.3-12.7-12.6-21.8c1-13.3,6.1-20.1,17.9-23.6
	C199.9,168,205.4,168.5,210.6,171z"/>
<path id="_x35_" class="st0" d="M264.5,190c0.9,7.8,1.4,7.3-9.8,7.8c-5.4,0.3-13.5,0.5-17.9,0.6l-8,0.1l-0.3-5.7
	c-0.2-3.2-0.1-5.9,0.1-6c0.2-0.2,8.3-0.3,17.9-0.3H264L264.5,190z"/>
<path id="_x34_" class="st0" d="M172.9,193.3c-0.1,2.9-0.2,5.4-0.4,5.6c-0.6,0.5-30.3,1.2-32.1,0.8s-1.9-0.8-1.9-6V188h17.3h17.2
	L172.9,193.3z"/>
<path id="_x33_" class="st0" d="M184.2,215.7l2.2,1.7l-2.6,2.7c-1.4,1.5-6.9,7.2-12.2,12.6l-9.7,9.8l-3.8-3.7c-2-2-3.8-4.1-3.8-4.5
	c0-0.4,5.3-6,11.9-12.6l11.8-11.8l2,2C181.1,213.1,183,214.8,184.2,215.7z"/>
<path id="_x32_" class="st0" d="M236.8,222.1l12.3,12.3l-4.6,4.4l-4.7,4.4l-12.5-12.4l-12.6-12.5l4.5-4.2c2.4-2.3,4.6-4.1,4.8-4.2
	C224.3,209.8,230,215.3,236.8,222.1z"/>
<path id="_x31_" class="st0" d="M205.9,238.4v17.4l-5.1-0.2l-5.1-0.2l-0.2-17.2l-0.2-17.1h5.3h5.3V238.4z"/>
<path id="middle-circle" class="st1" d="M206.7,186.9c3.9,3.5,3.5,11.6-0.8,14.5c-5.7,4.1-15.2-0.5-15.2-7.2
	C190.7,186.3,200.9,181.7,206.7,186.9z"/>
</svg>
