<?xml version="1.0" encoding="utf-8"?>
<!-- Generator: Adobe Illustrator 16.0.0, SVG Export Plug-In . SVG Version: 6.00 Build 0)  -->
<!DOCTYPE svg PUBLIC "-//W3C//DTD SVG 1.1//EN" "http://www.w3.org/Graphics/SVG/1.1/DTD/svg11.dtd">
<svg version="1.1" id="Capa_1" xmlns="http://www.w3.org/2000/svg" xmlns:xlink="http://www.w3.org/1999/xlink" x="0px" y="0px"
	 width="430.113px" height="430.114px" viewBox="0 0 430.113 430.114" enable-background="new 0 0 430.113 430.114"
	 xml:space="preserve">
<g>
	<path id="Facebook" fill="#FFFFFF" d="M158.077,83.297c0,10.84,0,59.22,0,59.22h-43.38v72.41h43.38v215.189h89.13v-215.18h59.8
		c0,0,5.6-34.72,8.319-72.69c-7.789,0-67.789,0-67.789,0s0-42.12,0-49.51c0-7.4,9.72-17.35,19.319-17.35c9.59,0,29.82,0,48.561,0
		c0-9.86,0-43.93,0-75.39c-25.011,0-53.48,0-66.021,0C155.876-0.003,158.077,72.477,158.077,83.297z"/>
</g>
</svg>
