<?xml version="1.0" encoding="utf-8"?>
<!-- Generator: Adobe Illustrator 16.0.0, SVG Export Plug-In . SVG Version: 6.00 Build 0)  -->
<!DOCTYPE svg PUBLIC "-//W3C//DTD SVG 1.1//EN" "http://www.w3.org/Graphics/SVG/1.1/DTD/svg11.dtd">
<svg version="1.1" id="Capa_1" xmlns="http://www.w3.org/2000/svg" xmlns:xlink="http://www.w3.org/1999/xlink" x="0px" y="0px"
	 width="90px" height="90px" viewBox="0 0 90 90" enable-background="new 0 0 90 90" xml:space="preserve">
<g>
	<path id="vCard" d="M86.656,76.936c-0.016-3.834-2.705-3.927-5.918-5.211l-15-6.009c-0.262-0.102-0.518-0.211-0.772-0.323v-0.007
		c-2.667-1.206-5.021-2.887-5.884-4.067l-0.034-0.037l-0.01-0.021c-0.05-0.075-0.103-0.153-0.147-0.229l-0.035-0.062l-0.006-0.016
		l-0.031-0.038v-0.002c-0.398-0.602-0.803-0.87-1.145-0.754l-0.021,0.009l-0.01,0.003l-0.002,0.002l-0.02,0.008l-0.014,0.004
		l-0.02,0.018c-0.404,0.211-0.324-0.021-0.488-0.469c-0.406-1.096-1.076-3.184-1.179-3.489c-0.155-0.572-0.573,0.901-0.479-0.688
		l0.17-2.879c0.277-0.297,0.5-0.539,0.652-0.705c0.978-1.119,1.045-4.07,1.534-4.791c0.49-0.721,1.472-0.875,2.45-4.227
		c0.98-3.354,2.175-8.143,0.915-8.221c-0.31-0.021-0.66,0.18-1.022,0.499c0.221-1.231,0.688-4.024,0.793-6.085
		c0.142-2.715-0.31-9.678-1.854-12.229c-0.965-1.595-2.913-3.175-4.854-4.407c-1.164-0.742-2.324-1.354-3.272-1.771
		c-2.827-1.254-11.74-0.678-14.758,0c-3.439,0.77-5.849,2.928-7.389,5.479c-1.538,2.555-2.221,10.213-2.087,12.928
		c0.065,1.218,0.794,3.273,0.979,4.527c0.105,0.654,0.202,0.659,0.284,1.127c-0.129-0.049-0.253-0.076-0.369-0.068
		c-1.261,0.078-0.069,4.867,0.91,8.221c0.982,3.351,1.958,3.506,2.45,4.228c0.49,0.719,0.559,3.67,1.542,4.789
		c0.155,0.178,0.391,0.437,0.684,0.747l0.187,2.349l0.33,1.308c-0.151-0.376-0.449-0.618-0.589-0.128
		c-0.422,1.281-0.844,2.564-1.266,3.847c-0.044-0.062-0.113-0.104-0.192-0.108c-0.409-0.36-0.958-0.047-1.458,0.785
		c-0.741,1.235-3.194,3.013-6.039,4.297l-0.04,0.154l-0.04,0.151l-0.015,0.062c-0.225,0.101-0.449,0.194-0.678,0.284L8.401,71.727
		c-3.209,1.284-5.901,1.377-5.918,5.211L0,90h90L86.656,76.936z"/>
</g>
<g>
	<path fill="#FFFFFF" d="M39.133,29.372c4.291,0.22,7.938,0.107,11.594-0.322c3.403-0.4,6.839-0.588,10.259-0.88
		c2.199-0.188,3.965-1.058,5.165-2.744c0.963-1.353,1.839-2.757,2.853-4.076c0.801-1.043,0.537-2.008-0.857-2.257
		c-1.594-0.286-3.222-0.42-4.829-0.656c-0.311-0.045-0.747-0.185-0.862-0.396c-0.767-1.422-1.412-2.898-2.194-4.314
		c-1.017-1.839-1.973-3.695-3.522-5.279c-1.798-1.838-3.86-3.102-6.618-3.364c-1.062-0.101-2.124-0.218-3.177-0.376
		c-1.268-0.19-2.517-0.5-3.79-0.637c-3.334-0.36-6.266,0.701-8.792,2.483c-3.14,2.216-5.274,5.129-6.47,8.572
		c-0.482,1.388-1.02,2.763-1.604,4.118c-0.107,0.248-0.539,0.487-0.859,0.539c-0.997,0.164-2.031,0.163-3.014,0.366
		c-0.938,0.193-1.855,0.513-2.736,0.868c-0.653,0.261-0.513,0.734-0.193,1.206c0.74,1.086,1.462,2.182,2.171,3.285
		c0.722,1.125,1.235,2.452,2.904,2.734c2.43,0.411,4.859,0.912,7.315,1.088C34.484,29.517,37.126,29.372,39.133,29.372z"/>
	<path fill-rule="evenodd" clip-rule="evenodd" d="M39.133,29.372c-2.007,0-4.648,0.146-7.26-0.042
		c-2.456-0.177-4.885-0.677-7.315-1.088c-1.668-0.282-2.182-1.609-2.904-2.734c-0.708-1.104-1.431-2.199-2.171-3.285
		c-0.32-0.472-0.46-0.945,0.193-1.206c0.881-0.354,1.798-0.675,2.736-0.868c0.983-0.203,2.018-0.202,3.014-0.366
		c0.32-0.052,0.752-0.291,0.859-0.539c0.584-1.355,1.123-2.73,1.604-4.118c1.196-3.442,3.33-6.355,6.47-8.572
		c2.526-1.783,5.458-2.843,8.792-2.483c1.273,0.137,2.522,0.447,3.79,0.637c1.053,0.158,2.115,0.275,3.177,0.376
		c2.758,0.262,4.82,1.526,6.618,3.364c1.55,1.584,2.506,3.44,3.522,5.279c0.782,1.416,1.428,2.892,2.194,4.314
		c0.115,0.211,0.552,0.352,0.862,0.396c1.607,0.235,3.235,0.37,4.829,0.656c1.395,0.249,1.658,1.214,0.857,2.257
		c-1.014,1.319-1.89,2.723-2.853,4.076c-1.2,1.686-2.966,2.555-5.165,2.744c-3.42,0.292-6.855,0.48-10.259,0.88
		C47.071,29.479,43.424,29.592,39.133,29.372z"/>
</g>
</svg>
