<?xml version="1.0" encoding="utf-8"?>
<!-- Generator: Adobe Illustrator 16.0.0, SVG Export Plug-In . SVG Version: 6.00 Build 0)  -->
<!DOCTYPE svg PUBLIC "-//W3C//DTD SVG 1.1//EN" "http://www.w3.org/Graphics/SVG/1.1/DTD/svg11.dtd">
<svg version="1.1" id="Capa_1" xmlns="http://www.w3.org/2000/svg" xmlns:xlink="http://www.w3.org/1999/xlink" x="0px" y="0px"
	 width="90px" height="90px" viewBox="0 0 90 90" enable-background="new 0 0 90 90" xml:space="preserve">
<g>
	<path fill="#FFFFFF" d="M70.94,65.83H66l0.02-2.87c0-1.27,1.051-2.32,2.33-2.32h0.311c1.29,0,2.34,1.051,2.34,2.32L70.94,65.83z"/>
	<path fill="#FFFFFF" d="M52.41,59.68c-1.25,0-2.28,0.851-2.28,1.88v13.95c0,1.03,1.03,1.87,2.28,1.87c1.26,0,2.29-0.84,2.29-1.87
		V61.56C54.7,60.53,53.67,59.68,52.41,59.68z"/>
	<path fill="#FFFFFF" d="M82.5,51.88v26.54C82.5,84.79,76.98,90,70.23,90H19.77C13.02,90,7.5,84.79,7.5,78.42V51.88
		c0-6.37,5.52-11.58,12.27-11.58h50.46C76.98,40.3,82.5,45.51,82.5,51.88z"/>
	<polygon fill="#FFFFFF" points="23.14,81.3 23.13,53.34 29.39,53.35 29.39,49.2 12.71,49.18 12.71,53.25 17.92,53.27 17.92,81.3 	
		"/>
	<path fill="#FFFFFF" d="M41.89,57.51h-5.22V72.44c0,2.159,0.13,3.239-0.01,3.619c-0.42,1.16-2.33,2.391-3.07,0.131
		c-0.13-0.4-0.01-1.601-0.02-3.65l-0.02-15.03h-5.18l0.01,14.8c0.01,2.271-0.05,3.96,0.02,4.73c0.13,1.35,0.08,2.93,1.34,3.84
		c2.35,1.69,6.84-0.25,7.97-2.67l-0.01,3.08l4.19,0.01V57.51L41.89,57.51z"/>
	<path fill="#FFFFFF" d="M58.57,74.61L58.56,62.18c-0.01-4.739-3.55-7.569-8.359-3.739l0.02-9.24l-5.2,0.01L44.99,81.1l4.279-0.06
		l0.391-1.99C55.14,84.07,58.58,80.63,58.57,74.61z"/>
	<path fill="#FFFFFF" d="M74.89,72.96L70.98,72.98c0,0.159-0.011,0.329-0.011,0.529v2.181c0,1.17-0.96,2.119-2.14,2.119h-0.76
		c-1.181,0-2.141-0.949-2.141-2.119v-0.24v-2.4v-3.1h8.95v-3.37c0-2.46-0.06-4.92-0.26-6.33c-0.65-4.45-6.9-5.16-10.061-2.88
		c-0.989,0.71-1.739,1.66-2.18,2.939c-0.45,1.28-0.67,3.03-0.67,5.261v7.41C61.71,85.3,76.68,83.55,74.89,72.96z"/>
	<path fill="#FFFFFF" d="M54.83,32.73c0.27,0.66,0.689,1.19,1.26,1.59c0.561,0.39,1.271,0.59,2.13,0.59c0.75,0,1.42-0.2,2-0.62
		s1.061-1.04,1.46-1.87l-0.1,2.04h5.82V9.74h-4.58v19.24c0,1.04-0.86,1.9-1.91,1.9c-1.04,0-1.9-0.86-1.9-1.9V9.74H54.23v16.67
		c0,2.13,0.039,3.54,0.1,4.26C54.4,31.38,54.56,32.07,54.83,32.73z"/>
	<path fill="#FFFFFF" d="M37.22,18.77c0-2.37,0.2-4.23,0.59-5.56s1.11-2.4,2.13-3.21c1.03-0.81,2.35-1.22,3.95-1.22
		c1.34,0,2.49,0.27,3.459,0.78c0.96,0.52,1.71,1.2,2.23,2.03c0.52,0.84,0.88,1.7,1.07,2.58c0.199,0.89,0.29,2.23,0.29,4.04v6.26
		c0,2.29-0.091,3.98-0.271,5.05s-0.56,2.07-1.14,3c-0.58,0.92-1.33,1.62-2.24,2.06c-0.92,0.44-1.97,0.66-3.16,0.66
		c-1.32,0-2.44-0.18-3.36-0.57c-0.92-0.38-1.63-0.95-2.14-1.71c-0.51-0.76-0.88-1.69-1.09-2.77c-0.22-1.08-0.33-2.71-0.33-4.88
		L37.22,18.77L37.22,18.77z"/>
	<path fill="#FFFFFF" d="M41.77,28.59c0,1.4,1.04,2.54,2.31,2.54s2.31-1.14,2.31-2.54V15.43c0-1.4-1.04-2.54-2.31-2.54
		s-2.31,1.14-2.31,2.54V28.59z"/>
	<polygon fill="#FFFFFF" points="25.68,35.23 31.17,35.23 31.17,16.27 37.65,0.03 31.65,0.03 28.21,12.1 24.71,0 18.78,0 
		25.67,16.28 	"/>
</g>
</svg>
